<?xml version="1.0" encoding="iso-8859-1"?>
<!-- Generator: Adobe Illustrator 19.0.0, SVG Export Plug-In . SVG Version: 6.00 Build 0)  -->
<svg version="1.1" id="Layer_1" xmlns="http://www.w3.org/2000/svg" xmlns:xlink="http://www.w3.org/1999/xlink" x="0px" y="0px"
	 viewBox="0 0 512 512" style="enable-background:new 0 0 512 512;" xml:space="preserve">
<g>
	<g>
		<path d="M467,61H45C20.187,61,0,81.187,0,106v300c0,24.813,20.187,45,45,45h422c24.813,0,45-20.187,45-45V106
			C512,81.187,491.813,61,467,61z M482,406c0,8.271-6.729,15-15,15H45c-8.271,0-15-6.729-15-15V106c0-8.271,6.729-15,15-15h422
			c8.271,0,15,6.729,15,15V406z"/>
	</g>
</g>
<g>
	<g>
		<path d="M436,151c-8.284,0-15,6.716-15,15v180c0,8.284,6.716,15,15,15s15-6.716,15-15V166C451,157.716,444.284,151,436,151z"/>
	</g>
</g>
<g>
	<g>
		<path d="M376,151c-8.284,0-15,6.716-15,15v120c0,8.284,6.716,15,15,15s15-6.716,15-15V166C391,157.716,384.284,151,376,151z"/>
	</g>
</g>
<g>
	<g>
		<path d="M316,151c-8.284,0-15,6.716-15,15v120c0,8.284,6.716,15,15,15s15-6.716,15-15V166C331,157.716,324.284,151,316,151z"/>
	</g>
</g>
<g>
	<g>
		<path d="M256,151c-8.284,0-15,6.716-15,15v120c0,8.284,6.716,15,15,15s15-6.716,15-15V166C271,157.716,264.284,151,256,151z"/>
	</g>
</g>
<g>
	<g>
		<path d="M196,151c-8.284,0-15,6.716-15,15v120c0,8.284,6.716,15,15,15s15-6.716,15-15V166C211,157.716,204.284,151,196,151z"/>
	</g>
</g>
<g>
	<g>
		<path d="M136,151c-8.284,0-15,6.716-15,15v120c0,8.284,6.716,15,15,15s15-6.716,15-15V166C151,157.716,144.284,151,136,151z"/>
	</g>
</g>
<g>
	<g>
		<path d="M76,151c-8.284,0-15,6.716-15,15v180c0,8.284,6.716,15,15,15s15-6.716,15-15V166C91,157.716,84.284,151,76,151z"/>
	</g>
</g>
<g>
	<g>
		<circle cx="136" cy="346" r="15"/>
	</g>
</g>
<g>
	<g>
		<circle cx="196" cy="346" r="15"/>
	</g>
</g>
<g>
	<g>
		<circle cx="256" cy="346" r="15"/>
	</g>
</g>
<g>
	<g>
		<circle cx="316" cy="346" r="15"/>
	</g>
</g>
<g>
	<g>
		<circle cx="376" cy="346" r="15"/>
	</g>
</g>
<g>
</g>
<g>
</g>
<g>
</g>
<g>
</g>
<g>
</g>
<g>
</g>
<g>
</g>
<g>
</g>
<g>
</g>
<g>
</g>
<g>
</g>
<g>
</g>
<g>
</g>
<g>
</g>
<g>
</g>
</svg>
